HIERARCHY
ROOT hip
{
  OFFSET 0 0 0
  CHANNELS 6 Xposition Yposition Zposition Zrotation Yrotation Xrotation
  JOINT abdomen
  {
    OFFSET 0 20.6881 -0.73152
    CHANNELS 3 Zrotation Xrotation Yrotation
    JOINT chest
    {
      OFFSET 0 11.7043 -0.48768
      CHANNELS 3 Zrotation Xrotation Yrotation
      JOINT neck
      {
        OFFSET 0 22.1894 -2.19456
        CHANNELS 3 Zrotation Xrotation Yrotation
        JOINT head
        {
          OFFSET -0.24384 7.07133 1.2192
          CHANNELS 3 Zrotation Xrotation Yrotation
          JOINT leftEye
          {
            OFFSET 4.14528 8.04674 8.04672
            CHANNELS 3 Zrotation Xrotation Yrotation
            End Site
            {
              OFFSET 1 0 0
            }
          }
          JOINT rightEye
          {
            OFFSET -3.6576 8.04674 8.04672
            CHANNELS 3 Zrotation Xrotation Yrotation
            End Site
            {
              OFFSET 1 0 0
            }
          }
        }
      }
      JOINT rCollar
      {
        OFFSET -2.68224 19.2634 -4.8768
        CHANNELS 3 Zrotation Xrotation Yrotation
        JOINT rShldr
        {
          OFFSET -8.77824 -1.95073 1.46304
          CHANNELS 3 Zrotation Xrotation Yrotation
          JOINT rForeArm
          {
            OFFSET -28.1742 -1.7115 0.48768
            CHANNELS 3 Zrotation Xrotation Yrotation
            JOINT rHand
            {
              OFFSET -22.5879 0.773209 7.07136
              CHANNELS 3 Zrotation Xrotation Yrotation
              JOINT rThumb1
              {
                OFFSET -1.2192 -0.487915 3.41376
                CHANNELS 3 Zrotation Xrotation Yrotation
                JOINT rThumb2
                {
                  OFFSET -3.37035 -0.52449 3.41376
                  CHANNELS 3 Zrotation Xrotation Yrotation
                  End Site
                  {
                    OFFSET -1.78271 -1.18214 1.43049
                  }
                }
              }
              JOINT rIndex1
              {
                OFFSET -7.75947 0.938293 5.60832
                CHANNELS 3 Zrotation Xrotation Yrotation
                JOINT rIndex2
                {
                  OFFSET -2.54057 -0.884171 1.56538
                  CHANNELS 3 Zrotation Xrotation Yrotation
                  End Site
                  {
                    OFFSET -1.62519 -0.234802 1.16502
                  }
                }
              }
              JOINT rMid1
              {
                OFFSET -8.24714 1.18213 3.41376
                CHANNELS 3 Zrotation Xrotation Yrotation
                JOINT rMid2
                {
                  OFFSET -3.10165 -0.590103 1.0647
                  CHANNELS 3 Zrotation Xrotation Yrotation
                  End Site
                  {
                    OFFSET -2.48547 -0.328903 0.83742
                  }
                }
              }
              JOINT rRing1
              {
                OFFSET -8.82822 0.546677 1.51678
                CHANNELS 3 Zrotation Xrotation Yrotation
                JOINT rRing2
                {
                  OFFSET -2.60934 -0.819778 -0.0198488
                  CHANNELS 3 Zrotation Xrotation Yrotation
                  End Site
                  {
                    OFFSET -2.33842 -0.294052 0.168128
                  }
                }
              }
              JOINT rPinky1
              {
                OFFSET -8.27202 -0.0477905 -0.4584
                CHANNELS 3 Zrotation Xrotation Yrotation
                JOINT rPinky2
                {
                  OFFSET -1.82734 -0.647385 -0.700984
                  CHANNELS 3 Zrotation Xrotation Yrotation
                  End Site
                  {
                    OFFSET -1.69225 -0.51767 -0.607171
                  }
                }
              }
            }
          }
        }
      }
      JOINT lCollar
      {
        OFFSET 2.68224 19.2634 -4.8768
        CHANNELS 3 Zrotation Xrotation Yrotation
        JOINT lShldr
        {
          OFFSET 8.77824 -1.95073 1.46304
          CHANNELS 3 Zrotation Xrotation Yrotation
          JOINT lForeArm
          {
            OFFSET 28.1742 -1.7115 0.48768
            CHANNELS 3 Zrotation Xrotation Yrotation
            JOINT lHand
            {
              OFFSET 22.5879 0.773209 7.07136
              CHANNELS 3 Zrotation Xrotation Yrotation
              JOINT lThumb1
              {
                OFFSET 1.2192 -0.487915 3.41376
                CHANNELS 3 Zrotation Xrotation Yrotation
                JOINT lThumb2
                {
                  OFFSET 3.37035 -0.52449 3.41376
                  CHANNELS 3 Zrotation Xrotation Yrotation
                  End Site
                  {
                    OFFSET 1.78271 -1.18214 1.43049
                  }
                }
              }
              JOINT lIndex1
              {
                OFFSET 7.75947 0.938293 5.60832
                CHANNELS 3 Zrotation Xrotation Yrotation
                JOINT lIndex2
                {
                  OFFSET 2.54057 -0.884171 1.56538
                  CHANNELS 3 Zrotation Xrotation Yrotation
                  End Site
                  {
                    OFFSET 1.62519 -0.234802 1.16502
                  }
                }
              }
              JOINT lMid1
              {
                OFFSET 8.24714 1.18213 3.41376
                CHANNELS 3 Zrotation Xrotation Yrotation
                JOINT lMid2
                {
                  OFFSET 3.10165 -0.590103 1.0647
                  CHANNELS 3 Zrotation Xrotation Yrotation
                  End Site
                  {
                    OFFSET 2.48547 -0.328903 0.83742
                  }
                }
              }
              JOINT lRing1
              {
                OFFSET 8.82822 0.546677 1.51678
                CHANNELS 3 Zrotation Xrotation Yrotation
                JOINT lRing2
                {
                  OFFSET 2.60934 -0.819778 -0.0198488
                  CHANNELS 3 Zrotation Xrotation Yrotation
                  End Site
                  {
                    OFFSET 2.33842 -0.294052 0.168128
                  }
                }
              }
              JOINT lPinky1
              {
                OFFSET 8.27202 -0.0477905 -0.4584
                CHANNELS 3 Zrotation Xrotation Yrotation
                JOINT lPinky2
                {
                  OFFSET 1.82734 -0.647385 -0.700984
                  CHANNELS 3 Zrotation Xrotation Yrotation
                  End Site
                  {
                    OFFSET 1.69225 -0.51767 -0.607171
                  }
                }
              }
            }
          }
        }
      }
    }
  }
  JOINT rButtock
  {
    OFFSET -8.77824 4.35084 1.2192
    CHANNELS 3 Zrotation Xrotation Yrotation
    JOINT rThigh
    {
      OFFSET 0 -1.70687 -2.19456
      CHANNELS 3 Zrotation Xrotation Yrotation
      JOINT rShin
      {
        OFFSET 0 -36.8199 0.73152
        CHANNELS 3 Zrotation Xrotation Yrotation
        JOINT rFoot
        {
          OFFSET 0.73152 -45.1104 -5.12064
          CHANNELS 3 Zrotation Xrotation Yrotation
          End Site
          {
            OFFSET -1.1221 -3.69964 12.103
          }
        }
      }
    }
  }
  JOINT lButtock
  {
    OFFSET 8.77824 4.35084 1.2192
    CHANNELS 3 Zrotation Xrotation Yrotation
    JOINT lThigh
    {
      OFFSET 0 -1.70687 -2.19456
      CHANNELS 3 Zrotation Xrotation Yrotation
      JOINT lShin
      {
        OFFSET 0 -36.8199 0.73152
        CHANNELS 3 Zrotation Xrotation Yrotation
        JOINT lFoot
        {
          OFFSET -0.73152 -45.1104 -5.12064
          CHANNELS 3 Zrotation Xrotation Yrotation
          End Site
          {
            OFFSET 1.1221 -3.69964 12.103
          }
        }
      }
    }
  }
}
MOTION
Frames:	5
Frame Time:	0.00833333
42.8615 86.4029 -215.02 -354.488 -51.8804 361.145 5.71782 0.132688 4.95272 0.263976 -8.0796 1.50326 9.04063 11.7538 13.178 -13.4187 -21.308 22.8973 -0.0 0.0 0.0 -0.0 0.0 0.0 -1.00903e-13 9.90455e-14 -1.00306e-12 62.7292 27.1561 -12.4761 -14.9097 -7.71253 27.4028 -0.251381 14.1184 2.02593 3.83244e-09 -3.6739e-09 -1.70822e-09 6.59939e-09 -6.37072e-09 -3.00317e-09 3.83244e-09 -3.67389e-09 -1.70822e-09 7.73091 5.47488 0.417314 3.83244e-09 -3.6739e-09 -1.70821e-09 2.90554 0.965183 0.102902 3.83245e-09 -3.6739e-09 -1.70821e-09 10.2786 0.731801 0.0259123 3.83244e-09 -3.6739e-09 -1.70821e-09 2.22167 -0.733487 -0.20892 -1.00978e-13 9.90309e-14 -1.00331e-12 -71.3504 11.0294 3.57243 20.2905 -13.3814 -39.3901 0.00690486 -2.36148 0.332074 3.45024e-09 -4.61594e-09 -2.25711e-09 5.96889e-09 -8.04993e-09 -3.92045e-09 3.45023e-09 -4.61594e-09 -2.2571e-09 -7.73091 5.47488 -0.417314 3.45023e-09 -4.61594e-09 -2.25711e-09 -2.90554 0.965183 -0.102902 3.45023e-09 -4.61593e-09 -2.25711e-09 -10.2786 0.731801 -0.0259123 3.45024e-09 -4.61592e-09 -2.25712e-09 -2.22167 -0.733487 0.20892 -2.03217e-16 0.0 -3.88251e-19 7.97128 -13.8225 5.30553 0.0445898 28.2801 1.24655 -32.9976 -24.9556 -51.935 2.03217e-16 0.0 3.88251e-19 -2.03248 -19.2024 -10.7245 0.200627 31.7382 -0.689035 4.65638 -16.3049 11.2407
42.9384 86.3918 -215.144 -354.855 -50.4941 361.383 5.64873 0.038212 4.70225 0.508715 -7.98843 1.44967 8.79091 11.7078 12.9585 -13.2193 -21.4218 22.506 -0.0 0.0 0.0 -0.0 0.0 0.0 -1.24031e-13 -3.18011e-14 -7.56922e-13 62.0082 26.5844 -11.7101 -14.8597 -7.66951 27.3004 -0.270442 14.6437 2.10453 2.91248e-09 -3.06886e-09 -1.07567e-09 5.01534e-09 -5.32044e-09 -1.89819e-09 2.91248e-09 -3.06886e-09 -1.07567e-09 7.73091 5.47488 0.417314 2.91247e-09 -3.06886e-09 -1.07566e-09 2.90554 0.965183 0.102902 2.91248e-09 -3.06886e-09 -1.07566e-09 10.2786 0.731801 0.0259123 2.91247e-09 -3.06886e-09 -1.07566e-09 2.22167 -0.733487 -0.20892 -1.2411e-13 -3.181e-14 -7.57171e-13 -71.5093 10.3769 4.04566 20.2709 -13.3563 -39.3417 0.00885253 -2.68539 0.377686 2.67202e-09 -1.60132e-09 -1.5679e-09 4.62175e-09 -2.81731e-09 -2.72417e-09 2.67202e-09 -1.60132e-09 -1.56789e-09 -7.73091 5.47488 -0.417314 2.67202e-09 -1.60132e-09 -1.5679e-09 -2.90554 0.965183 -0.102902 2.67201e-09 -1.60132e-09 -1.5679e-09 -10.2786 0.731801 -0.0259123 2.67203e-09 -1.60131e-09 -1.56791e-09 -2.22167 -0.733487 0.20892 -2.03217e-16 0.0 -3.88251e-19 8.12036 -13.8778 5.00121 0.0428764 28.3954 1.25659 -33.4819 -25.1699 -52.2443 2.03217e-16 0.0 3.88251e-19 -1.79262 -18.8928 -9.45765 0.198295 31.8416 -0.712717 5.40637 -16.7775 12.9275
43.0817 86.3882 -215.311 -355.145 -48.9374 361.698 5.51299 -0.0545643 4.58896 0.587932 -8.04523 1.42318 8.82122 11.523 12.637 -13.1275 -21.3231 21.8687 -0.0 0.0 0.0 -0.0 0.0 0.0 -8.3656e-14 -7.56245e-14 -4.76864e-13 61.6201 25.5648 -11.1756 -14.8194 -7.63482 27.218 -0.296195 15.3295 2.2076 1.43211e-09 -2.36074e-09 -4.88952e-10 2.46485e-09 -4.09068e-09 -8.62776e-10 1.4321e-09 -2.36074e-09 -4.88958e-10 7.73091 5.47488 0.417314 1.4321e-09 -2.36074e-09 -4.88948e-10 2.90554 0.965183 0.102902 1.43211e-09 -2.36074e-09 -4.88952e-10 10.2786 0.731801 0.0259123 1.4321e-09 -2.36074e-09 -4.8895e-10 2.22167 -0.733487 -0.20892 -8.37309e-14 -7.56258e-14 -4.77091e-13 -71.4748 10.0269 4.53833 20.2645 -13.3477 -39.3273 0.0113658 -3.05215 0.429355 1.20667e-09 -1.79143e-09 -9.00009e-10 2.08585e-09 -3.13594e-09 -1.5662e-09 1.20667e-09 -1.79144e-09 -9.00004e-10 -7.73091 5.47488 -0.417314 1.20667e-09 -1.79144e-09 -9.00009e-10 -2.90554 0.965183 -0.102902 1.20667e-09 -1.79144e-09 -9.00011e-10 -10.2786 0.731801 -0.0259123 1.20668e-09 -1.79142e-09 -9.00018e-10 -2.22167 -0.733487 0.20892 -2.03217e-16 0.0 -3.88251e-19 8.22647 -14.0514 4.62944 0.0404229 28.5648 1.26614 -33.8286 -25.2984 -52.4743 2.03217e-16 0.0 3.88251e-19 -1.48812 -18.7455 -8.01396 0.197626 32.0085 -0.732092 5.94209 -17.08 14.1023
43.2595 86.3537 -215.459 -355.332 -47.3407 362.04 5.31946 -0.146553 4.55996 0.570921 -8.19697 1.41381 9.02537 11.2412 12.2388 -13.0959 -21.0811 21.0525 -0.0 0.0 0.0 -0.0 0.0 0.0 -4.73798e-15 -8.12077e-14 -1.39702e-13 61.4537 24.2345 -10.7837 -14.7876 -7.60764 27.1532 -0.328039 16.1193 2.32731 -5.50555e-10 -1.47325e-09 1.67959e-10 -9.51407e-10 -2.54923e-09 3.02057e-10 -5.50554e-10 -1.47325e-09 1.67949e-10 7.73091 5.47488 0.417314 -5.50557e-10 -1.47325e-09 1.67962e-10 2.90554 0.965183 0.102902 -5.50552e-10 -1.47325e-09 1.67956e-10 10.2786 0.731801 0.0259123 -5.50559e-10 -1.47325e-09 1.67957e-10 2.22167 -0.733487 -0.20892 -4.80405e-15 -8.11996e-14 -1.39898e-13 -71.3207 9.87422 5.04914 20.2619 -13.3436 -39.323 0.0143212 -3.43543 0.483389 -8.28696e-10 -3.65337e-09 -1.39167e-10 -1.43632e-09 -6.34867e-09 -2.47706e-10 -8.28704e-10 -3.65338e-09 -1.39163e-10 -7.73091 5.47488 -0.417314 -8.28701e-10 -3.65338e-09 -1.39167e-10 -2.90554 0.965183 -0.102902 -8.28705e-10 -3.65338e-09 -1.39169e-10 -10.2786 0.731801 -0.0259123 -8.2869e-10 -3.65336e-09 -1.39173e-10 -2.22167 -0.733487 0.20892 -2.03217e-16 0.0 -3.88251e-19 8.30102 -14.3068 4.22449 0.0373363 28.776 1.27528 -34.074 -25.3703 -52.642 2.03217e-16 0.0 3.88251e-19 -1.12109 -18.7003 -6.44207 0.198189 32.2229 -0.74874 6.29035 -17.2545 14.8526
43.4156 86.3259 -215.551 -355.438 -45.8963 362.329 5.12094 -0.231705 4.53153 0.531839 -8.36854 1.40346 9.23769 10.9285 11.8196 -13.0558 -20.8051 20.1947 -0.0 0.0 0.0 -0.0 0.0 0.0 7.11977e-14 -7.14338e-14 1.94183e-13 61.3607 22.8109 -10.4296 -14.7739 -7.59595 27.125 -0.3602 16.8496 2.43917 -2.52291e-09 -4.53527e-10 7.79608e-10 -4.35005e-09 -7.79299e-10 1.38879e-09 -2.52291e-09 -4.53529e-10 7.79595e-10 7.73091 5.47488 0.417314 -2.52291e-09 -4.53529e-10 7.79609e-10 2.90554 0.965183 0.102902 -2.52291e-09 -4.53528e-10 7.79602e-10 10.2786 0.731801 0.0259123 -2.52292e-09 -4.53523e-10 7.79603e-10 2.22167 -0.733487 -0.20892 7.11414e-14 -7.14181e-14 1.94017e-13 -71.158 9.7419 5.55728 20.2403 -13.3158 -39.2704 0.0171439 -3.74957 0.527719 -2.73078e-09 -5.69905e-09 6.62781e-10 -4.72816e-09 -9.88133e-09 1.14214e-09 -2.73079e-09 -5.69907e-09 6.62785e-10 -7.73091 5.47488 -0.417314 -2.73079e-09 -5.69907e-09 6.62781e-10 -2.90554 0.965183 -0.102902 -2.73079e-09 -5.69907e-09 6.62779e-10 -10.2786 0.731801 -0.0259123 -2.73077e-09 -5.69905e-09 6.62778e-10 -2.22167 -0.733487 0.20892 -2.03217e-16 0.0 -3.88251e-19 8.35308 -14.5687 3.82613 0.0341174 28.9894 1.28177 -34.2394 -25.3789 -52.7829 2.03217e-16 0.0 3.88251e-19 -0.75502 -18.6762 -4.93267 0.199534 32.4798 -0.764925 6.56244 -17.3775 15.4248
